<svg width="96" height="96" viewBox="0 0 96 96" fill="none" xmlns="http://www.w3.org/2000/svg">
<g filter="url(#filter0_d)">
<rect x="10" y="6" width="76" height="76" rx="38" fill="white"/>
</g>
<path d="M59.2281 37.5155L57.6159 37.5155V35.8465C57.6159 35.4644 57.3363 35.1398 56.9584 35.0833C56.8924 35.0734 55.3218 34.8452 53.4304 35.1894C51.322 35.573 49.6404 36.5191 48.4999 37.9494C47.3594 36.5191 45.6778 35.573 43.5694 35.1894C41.678 34.8453 40.1074 35.0734 40.0415 35.0833C39.6636 35.1399 39.384 35.4645 39.384 35.8465V37.5155H37.7718C37.3456 37.5155 37 37.8611 37 38.2873V52.8311C37 53.081 37.121 53.3154 37.3247 53.4602C37.5285 53.605 37.7897 53.6422 38.0256 53.5599C38.0836 53.5399 43.8671 51.5661 48.1796 53.5332C48.3832 53.6261 48.6168 53.6261 48.8203 53.5332C53.1208 51.5716 58.9167 53.54 58.9743 53.5599C59.057 53.5887 59.1427 53.6029 59.228 53.6029C59.3862 53.6029 59.5428 53.5543 59.6753 53.4603C59.879 53.3154 60 53.081 60 52.8311V38.2874C59.9999 37.8611 59.6543 37.5155 59.2281 37.5155ZM38.5436 51.7984V39.0591H39.384V49.3375C39.384 49.5617 39.4821 49.7747 39.6518 49.9213C39.8215 50.0679 40.0471 50.1336 40.2689 50.1009C40.3115 50.0947 43.6644 49.6344 46.114 51.3151C43.0965 50.7991 40.0765 51.3959 38.5436 51.7984ZM47.7282 50.619C46.6493 49.6442 45.2439 48.985 43.5694 48.6804C42.7636 48.5337 42.016 48.491 41.4181 48.491C41.2407 48.491 41.0763 48.4948 40.9277 48.5007V36.5553H40.9276C42.411 36.4884 46.0195 36.647 47.7282 39.5435V50.619ZM49.2717 39.5435C50.9743 36.6594 54.5884 36.4936 56.0722 36.5572V48.5007C55.4231 48.4745 54.4754 48.4902 53.4304 48.6804C51.7559 48.985 50.3506 49.6441 49.2717 50.619V39.5435ZM50.8833 51.3155C53.3332 49.6338 56.6879 50.0946 56.7297 50.1008C56.9521 50.1342 57.1776 50.0688 57.3478 49.9223C57.518 49.7756 57.6159 49.5622 57.6159 49.3375V39.0592H58.4563V51.7984C56.9229 51.3958 53.9017 50.7987 50.8833 51.3155Z" fill="#373B53"/>
<circle cx="61.5" cy="34.5" r="9.5" fill="#EA1919"/>
<path d="M59.264 39V37.608L62.084 34.68C62.652 34.096 62.936 33.6 62.936 33.192C62.936 32.928 62.856 32.716 62.696 32.556C62.536 32.388 62.316 32.304 62.036 32.304C61.476 32.304 61.064 32.608 60.8 33.216L59.18 32.268C59.436 31.668 59.82 31.212 60.332 30.9C60.844 30.588 61.404 30.432 62.012 30.432C62.796 30.432 63.464 30.676 64.016 31.164C64.576 31.644 64.856 32.292 64.856 33.108C64.856 33.996 64.42 34.876 63.548 35.748L62.156 37.152H64.976V39H59.264Z" fill="white"/>
<defs>
<filter id="filter0_d" x="0" y="0" width="96" height="96" filterUnits="userSpaceOnUse" color-interpolation-filters="sRGB">
<feFlood flood-opacity="0" result="BackgroundImageFix"/>
<feColorMatrix in="SourceAlpha" type="matrix" values="0 0 0 0 0 0 0 0 0 0 0 0 0 0 0 0 0 0 127 0"/>
<feOffset dy="4"/>
<feGaussianBlur stdDeviation="5"/>
<feColorMatrix type="matrix" values="0 0 0 0 0 0 0 0 0 0 0 0 0 0 0 0 0 0 0.05 0"/>
<feBlend mode="normal" in2="BackgroundImageFix" result="effect1_dropShadow"/>
<feBlend mode="normal" in="SourceGraphic" in2="effect1_dropShadow" result="shape"/>
</filter>
</defs>
</svg>
