<svg width="99" height="81" viewBox="0 0 99 81" fill="none" xmlns="http://www.w3.org/2000/svg">
<path d="M95.6777 10.8277L88.738 10.8274V3.64375C88.738 1.99909 87.5347 0.601757 85.908 0.358425C85.624 0.315758 78.8634 -0.666239 70.7224 0.815089C61.6468 2.46642 54.4088 6.53874 49.4998 12.6951C44.5905 6.53874 37.3525 2.46642 28.2772 0.815089C20.1359 -0.665906 13.3753 0.315758 13.0916 0.358425C11.465 0.602091 10.2616 1.99942 10.2616 3.64375V10.8274H3.32199C1.48766 10.8274 0 12.3151 0 14.1497V76.7512C0 77.8268 0.520665 78.8358 1.39766 79.4592C2.27466 80.0825 3.39899 80.2425 4.41465 79.8885C4.66398 79.8022 29.5582 71.3062 48.1212 79.7735C48.9972 80.1732 50.0028 80.1732 50.8788 79.7735C69.3898 71.3302 94.3373 79.8028 94.5853 79.8885C94.9413 80.0125 95.31 80.0735 95.6773 80.0735C96.3583 80.0735 97.0323 79.8642 97.6023 79.4595C98.4793 78.8362 99 77.8272 99 76.7515V14.15C98.9997 12.3154 97.5123 10.8277 95.6777 10.8277ZM6.64431 72.3062V17.4717H10.2616V61.7136C10.2616 62.6789 10.684 63.5955 11.4143 64.2265C12.1446 64.8575 13.116 65.1405 14.0706 64.9995C14.254 64.9729 28.6859 62.9915 39.2299 70.2259C26.2416 68.0049 13.2423 70.5739 6.64431 72.3062ZM46.1778 67.2299C41.5339 63.0339 35.4849 60.1966 28.2772 58.8852C24.8086 58.2539 21.5906 58.0699 19.0173 58.0699C18.2533 58.0699 17.5459 58.0862 16.9063 58.1119V6.6944H16.9059C23.2909 6.4064 38.8232 7.08907 46.1778 19.5567V67.2299ZM52.8218 19.557C60.1501 7.14273 75.7067 6.42907 82.0937 6.70274V58.1119C79.2994 57.9992 75.2204 58.0666 70.7224 58.8852C63.5148 60.1966 57.4658 63.0335 52.8218 67.2299V19.557ZM59.7588 70.2279C70.3041 62.9892 84.7437 64.9725 84.9237 64.9992C85.8807 65.1429 86.8514 64.8615 87.584 64.2309C88.3167 63.5995 88.738 62.6809 88.738 61.7136V17.472H92.3554V72.3062C85.7554 70.5732 72.7508 68.0032 59.7588 70.2279Z" fill="#3D1168"/>
</svg>
