<svg width="22" height="22" viewBox="0 0 22 22" fill="none" xmlns="http://www.w3.org/2000/svg">
<path d="M17.1875 22H4.8125C3.67584 22 2.75 21.0752 2.75 19.9375V10.3125C2.75 9.17484 3.67584 8.25 4.8125 8.25H17.1875C18.3242 8.25 19.25 9.17484 19.25 10.3125V19.9375C19.25 21.0752 18.3242 22 17.1875 22ZM4.8125 9.625C4.43384 9.625 4.125 9.933 4.125 10.3125V19.9375C4.125 20.317 4.43384 20.625 4.8125 20.625H17.1875C17.5662 20.625 17.875 20.317 17.875 19.9375V10.3125C17.875 9.933 17.5662 9.625 17.1875 9.625H4.8125Z" fill="#929594"/>
<path d="M15.8125 9.625C15.433 9.625 15.125 9.317 15.125 8.9375V5.5C15.125 3.22568 13.2743 1.375 11 1.375C8.72568 1.375 6.875 3.22568 6.875 5.5V8.9375C6.875 9.317 6.567 9.625 6.1875 9.625C5.808 9.625 5.5 9.317 5.5 8.9375V5.5C5.5 2.46667 7.96667 0 11 0C14.0333 0 16.5 2.46667 16.5 5.5V8.9375C16.5 9.317 16.192 9.625 15.8125 9.625Z" fill="#929594"/>
</svg>
