<svg width="123" height="105" viewBox="0 0 123 105" fill="none" xmlns="http://www.w3.org/2000/svg">
<path d="M122.766 74.9346C122.766 70.2486 119.761 66.2535 115.578 64.7696V27.5798L123 24.6131L61.4202 0L0 24.6131L29.0726 36.2635V53.3683C29.0726 58.6412 32.7693 63.3935 39.4816 66.7498C45.4022 69.7102 53.1939 71.3404 61.4219 71.3404C69.6499 71.3404 77.4419 69.7102 83.3622 66.7498C90.0746 63.3935 93.7713 58.6414 93.7713 53.3683V36.2957L108.389 30.4532V64.7698C104.205 66.2535 101.2 70.2488 101.2 74.9348C101.2 79.2215 103.714 82.9314 107.346 84.6681L101.384 102.553L108.204 104.826L111.983 93.4899L115.762 104.826L122.582 102.553L116.62 84.6681C120.251 82.931 122.766 79.2213 122.766 74.9346ZM86.5828 53.3681C86.5828 58.4582 75.8227 64.1512 61.4222 64.1512C47.0216 64.1512 36.2616 58.4582 36.2616 53.3681V39.1441L61.4205 49.2262L86.583 39.1686V53.3681H86.5828ZM61.4238 41.4833L19.3256 24.6131L61.4238 7.74296L103.631 24.6131L61.4238 41.4833ZM111.983 78.5289C110.001 78.5289 108.389 76.9165 108.389 74.9346C108.389 72.9526 110.001 71.3402 111.983 71.3402C113.965 71.3402 115.578 72.9526 115.578 74.9346C115.578 76.9165 113.965 78.5289 111.983 78.5289Z" fill="#ECECEC"/>
</svg>
